<svg id="Capa_1" enable-background="new 0 0 509.702 509.702" height="512" viewBox="0 0 509.702 509.702" width="512" xmlns="http://www.w3.org/2000/svg"><g><path d="m15 82.438h14.498v-15h-14.498v-30.029h110.294l28.722 30.029h-79.517v15h315.499v90.005h15v-105.005h-230.224l-43.07-45.029h-131.704v315.029h172.513v-15h-157.513z"/><path d="m44.499 67.438h15v15h-15z"/><path d="m210.861 221.743 12.41 8.426c2.634-3.878 5.549-7.637 8.664-11.17l-11.25-9.921c-3.532 4.005-6.836 8.266-9.824 12.665z"/><path d="m383.916 225.263c-18.11-18.11-42.189-28.084-67.801-28.084s-49.69 9.974-67.801 28.084c-18.11 18.11-28.084 42.188-28.084 67.8s9.974 49.69 28.084 67.8 42.188 28.084 67.801 28.084c25.611 0 49.69-9.974 67.801-28.084 15.578-15.578 25.377-36.208 27.593-58.088 2.185-21.568-3.041-43.43-14.714-61.558l-12.611 8.12c20.437 31.739 15.863 74.182-10.875 100.92-15.276 15.277-35.589 23.69-57.193 23.69-21.605 0-41.917-8.414-57.193-23.69-15.277-15.277-23.691-35.589-23.691-57.194s8.414-41.917 23.691-57.194c15.276-15.277 35.588-23.69 57.193-23.69 21.604 0 41.917 8.414 57.193 23.69z"/><path d="m322.167 299.327h14.521l15.311-15.309v-31.379l-14.227-14.226h-38.211l-13.198 13.196 10.608 10.607 8.802-8.803h25.787l5.439 5.439v18.952l-6.523 6.523h-23.309v29.586h15z"/><path d="m307.084 328.913h15v15h-15z"/><path d="m424.311 359.809c30.222-48.988 24.123-114.2-18.309-156.632-22.742-22.742-52.956-35.933-85.076-37.142-31.937-1.205-62.89 9.51-87.141 30.164l9.727 11.419c44.129-37.584 110.844-34.875 151.883 6.166 43.716 43.715 43.716 114.845 0 158.561s-114.846 43.714-158.56 0c-34.021-34.021-42.571-85.84-21.275-128.944l-13.449-6.644c-24.145 48.873-14.453 107.624 24.117 146.194 24.782 24.782 57.335 37.173 89.888 37.173 22.672 0 45.341-6.018 65.388-18.04l85.211 85.21h26.856l16.131-16.131v-25.963zm70.391 105.14-7.344 7.344h-14.431l-78.833-78.832c4.132-3.214 8.111-6.716 11.907-10.511 3.421-3.421 6.597-6.995 9.545-10.691l79.155 79.154v13.536z"/><path d="m29.332 113.185h15v15h-15z"/><path d="m29.332 143.517h15v58.921h-15z"/></g></svg>